{"title":"Frenzy 2018 1080p WEB-DL DD 5.1 x264 [MW]","magnet":"magnet:?xt=urn:btih:f075ecf62a619344931b48482d8525f580abdc33&dn=Frenzy+2018+1080p+WEB-DL+DD+5.1+x264+%5BMW%5D&tr=udp%3A%2F%2Ftracker.leechers-paradise.org%3A6969&tr=udp%3A%2F%2Fzer0day.ch%3A1337&tr=udp%3A%2F%2Fopen.demonii.com%3A1337&tr=udp%3A%2F%2Ftracker.coppersurfer.tk%3A6969&tr=udp%3A%2F%2Fexodus.desync.com%3A6969","uploader":"MFreaky","categoryP":"video","categoryS":"hd___movies","size":"1823661840","seeders":"4","leechers":"7","description":" <a href=\"https://pichub.site/image/EL3qu\" rel=\"nofollow\" target=\"_NEW\">https://pichub.site/image/EL3qu</a> <a href=\"\nhttps://pichub.site/image/ELs59\" rel=\"nofollow\" target=\"_NEW\">\nhttps://pichub.site/image/ELs59</a> <a href=\"\nhttps://pichub.site/image/EL1yR\" rel=\"nofollow\" target=\"_NEW\">\nhttps://pichub.site/image/EL1yR</a> <a href=\"\nhttps://pichub.site/image/EL90s\" rel=\"nofollow\" target=\"_NEW\">\nhttps://pichub.site/image/EL90s</a> <a href=\"\nhttps://pichub.site/image/ELHFB\" rel=\"nofollow\" target=\"_NEW\">\nhttps://pichub.site/image/ELHFB</a>\r\n\r\nIMDB <a href=\"\nhttps://www.imdb.com/title/tt8805150/\" rel=\"nofollow\" target=\"_NEW\">\nhttps://www.imdb.com/title/tt8805150/</a>\r\n\r\nVideo\r\nFormat                                   : AVC\r\nFormat/Info                              : Advanced Video Codec\r\nFormat profile                           : High@L4.1\r\nFormat settings                          : CABAC / 4 Ref Frames\r\nFormat settings, CABAC                   : Yes\r\nFormat settings, RefFrames               : 4 frames\r\nCodec ID                                 : V_MPEG4/ISO/AVC\r\nDuration                                 : 1 h 24 min\r\nBit rate                                 : 2 500 kb/s\r\nWidth                                    : 1 904 pixels\r\nHeight                                   : 1 064 pixels\r\nDisplay aspect ratio                     : 16:9\r\nFrame rate mode                          : Constant\r\nFrame rate                               : 23.976 (24000/1001) FPS\r\nColor space                              : YUV\r\nChroma subsampling                       : 4:2:0\r\nBit depth                                : 8 bits\r\nBits/(Pixel*Frame)                       : 0.051\r\nStream size                              : 1.47 GiB (87%)\r\nWriting library                          : x264 core 155 r2901 7d0ff22\r\n\r\nAudio\r\nFormat                                   : AC-3\r\nFormat/Info                              : Audio Coding 3\r\nCodec ID                                 : A_AC3\r\nDuration                                 : 1 h 24 min\r\nBit rate mode                            : Constant\r\nBit rate                                 : 384 kb/s\r\nChannel(s)                               : 6 channels\r\nChannel positions                        : Front: L C R, Side: L R, LFE\r\nSampling rate                            : 48.0 kHz\r\nFrame rate                               : 31.250 FPS (1536 SPF)\r\nBit depth                                : 16 bits\r\nStream size                              : 233 MiB (13%)\r\nLanguage                                 : English","last_updated":"2018-09-25T12:16:04.397Z","parsed":{"xt":"urn:btih:f075ecf62a619344931b48482d8525f580abdc33","dn":"Frenzy 2018 1080p WEB-DL DD 5.1 x264 [MW]","tr":["udp://exodus.desync.com:6969","udp://open.demonii.com:1337","udp://tracker.coppersurfer.tk:6969","udp://tracker.leechers-paradise.org:6969","udp://zer0day.ch:1337"],"infoHash":"f075ecf62a619344931b48482d8525f580abdc33","infoHashBuffer":{"type":"Buffer","data":[240,117,236,246,42,97,147,68,147,27,72,72,45,133,37,245,128,171,220,51]},"name":"Frenzy 2018 1080p WEB-DL DD 5.1 x264 [MW]","announce":["udp://exodus.desync.com:6969","udp://open.demonii.com:1337","udp://tracker.coppersurfer.tk:6969","udp://tracker.leechers-paradise.org:6969","udp://zer0day.ch:1337"],"urlList":[]}}